<?xml version="1.0" encoding="utf-8"?>
<!-- Generator: Adobe Illustrator 21.1.0, SVG Export Plug-In . SVG Version: 6.00 Build 0)  -->
<svg version="1.1" id="Layer_1" xmlns="http://www.w3.org/2000/svg" xmlns:xlink="http://www.w3.org/1999/xlink" x="0px" y="0px"
	 viewBox="0 0 339.3 306.3" style="enable-background:new 0 0 339.3 306.3;" xml:space="preserve">
<style type="text/css">
	.st0{opacity:0.2;fill:none;stroke:#D3D3D3;stroke-dasharray:5,5;}
	.st1{fill:none;}
	.st2{fill:none;stroke:#D3D3D3;stroke-dasharray:5,5;}
	.st3{fill:#FFC750;}
	.st4{opacity:0.2;}
	.st5{fill:#FF8C50;}
	.st6{fill:#FF1D34;}
	.st7{fill:#5CDACC;}
	.st8{fill:#00808E;}
	.st9{opacity:0.35;}
	.st10{opacity:0.3;enable-background:new    ;}
	.st11{font-family:'IBMPlexMono-Bold';}
	.st12{font-size:14.8734px;}
	.st13{font-size:10px;}
	.st14{fill:none;stroke:#000000;stroke-miterlimit:10;}
	.st15{fill:#808080;}
</style>
<g>
	<g>
		<circle class="st0" cx="161.7" cy="153.3" r="112"/>
		<circle class="st0" cx="161.7" cy="153.3" r="37"/>
	</g>
	<path class="st1" d="z"/>
	<path class="st1" d="z"/>
	<circle class="st2" cx="161.7" cy="153.3" r="150"/>
	<circle class="st2" cx="161.7" cy="153.3" r="75"/>
	<g>
		<path class="st3" d="M161.7,156.3L161.7,156.3c-2.8,0-5-2.2-5-5V82.9c0-2.8,2.2-5,5-5l0,0c2.8,0,5,2.2,5,5v68.4
			C166.7,154.1,164.4,156.3,161.7,156.3z"/>
	</g>
	<g class="st4">
		<g>
			<path class="st5" d="M157.9,153.6L157.9,153.6c-0.9-2.6,0.6-5.4,3.2-6.3l65.1-21.1c2.6-0.9,5.4,0.6,6.3,3.2l0,0
				c0.9,2.6-0.6,5.4-3.2,6.3l-65.1,21.1C161.5,157.6,158.7,156.2,157.9,153.6z"/>
		</g>
		<g>
			<path class="st6" d="M159.3,149.1L159.3,149.1c2.2-1.6,5.4-1.2,7,1.1l40.5,55.1c1.6,2.2,1.2,5.4-1.1,7l0,0
				c-2.2,1.6-5.4,1.2-7-1.1l-40.5-55.1C156.6,153.9,157.1,150.7,159.3,149.1z"/>
		</g>
		<g>
			<path class="st7" d="M164.7,149.1L164.7,149.1c-2.2-1.6-5.4-1.2-7,1.1l-40.5,55.1c-1.6,2.2-1.2,5.4,1.1,7l0,0
				c2.2,1.6,5.4,1.2,7-1.1l40.5-55.1C167.4,153.9,166.9,150.7,164.7,149.1z"/>
		</g>
		<g>
			<path class="st8" d="M166.1,153.6L166.1,153.6c0.9-2.6-0.6-5.4-3.2-6.3l-65.1-21.1c-2.6-0.9-5.4,0.6-6.3,3.2l0,0
				c-0.9,2.6,0.6,5.4,3.2,6.3l65.1,21.1C162.5,157.6,165.3,156.2,166.1,153.6z"/>
		</g>
	</g>
	<g class="st9">
		<path class="st10" d="M161.7,3.9L161.7,3.9c0.6,0,1,0.4,1,1v146.5c0,0.6-0.4,1-1,1l0,0c-0.6,0-1-0.4-1-1V4.9
			C160.7,4.3,161.1,3.9,161.7,3.9z"/>
		<path class="st10" d="M302.5,107.9L302.5,107.9c0.2,0.5-0.1,1.1-0.7,1.3l-140,43.3c-0.5,0.2-1.1-0.1-1.3-0.7l0,0
			c-0.2-0.5,0.1-1.1,0.7-1.3l140-43.3C301.7,107.1,302.3,107.4,302.5,107.9z"/>
		<path class="st10" d="M249.2,270L249.2,270c-0.4,0.3-1.1,0.2-1.4-0.2l-87.1-117.8c-0.3-0.4-0.2-1.1,0.2-1.4l0,0
			c0.4-0.3,1.1-0.2,1.4,0.2l87.1,117.8C249.7,269,249.6,269.7,249.2,270z"/>
		<path class="st10" d="M20.4,107.9L20.4,107.9c-0.2,0.5,0.1,1.1,0.7,1.3l140,43.3c0.5,0.2,1.1-0.1,1.3-0.7l0,0
			c0.2-0.5-0.1-1.1-0.7-1.3l-140-43.3C21.1,107.1,20.5,107.4,20.4,107.9z"/>
	</g>
	<path class="st10" d="M73.7,270L73.7,270c0.4,0.3,1.1,0.2,1.4-0.2l87.1-117.8c0.3-0.4,0.2-1.1-0.2-1.4l0,0
		c-0.4-0.3-1.1-0.2-1.4,0.2L73.5,268.6C73.1,269,73.2,269.7,73.7,270z"/>
	<text transform="matrix(1 0 0 1 125.8357 29.3333)"><tspan x="0" y="0" class="st11 st12">original</tspan><tspan x="13.4" y="13" class="st11 st12">study</tspan></text>
	<text transform="matrix(1 0 0 1 134.5312 54.0002)"><tspan x="0" y="0" class="st11 st13">(thicker </tspan><tspan x="6" y="10" class="st11 st13">stroke)</tspan></text>
	<text transform="matrix(1 0 0 1 137.5312 239.3335)"><tspan x="0" y="0" class="st11 st13">(lighter</tspan><tspan x="3" y="10" class="st11 st13">stroke)</tspan></text>
	<text transform="matrix(1 0 0 1 117.6716 265.3327)"><tspan x="0" y="0" class="st11 st12">replication</tspan><tspan x="-4.5" y="13" class="st11 st12">of the study</tspan></text>
	<g>
		<g>
			<path class="st14" d="M152.4,112.9c-21.5,0-39-17.5-39-39c0-10.3,4-19.7,10.5-26.7"/>
			<g>
				<polygon points="124.8,52.5 123.8,52.5 123.7,47.6 118.8,48 118.7,47 124.7,46.5 				"/>
			</g>
		</g>
	</g>
	<g>
		<g>
			<path class="st14" d="M109.7,231.1c7.2,2.9,13.1,7.7,17.4,13.8"/>
			<g>
				<polygon points="121.8,244.7 122,243.7 126.8,244.6 127.4,239.7 128.4,239.8 127.7,245.8 				"/>
			</g>
		</g>
	</g>
	<g>
		<path class="st15" d="M263,20.2l1-1.2l-0.1,0l-2.6,1.6l0.9-2.9l-0.1,0l-0.9,1.3l-1.5,2l-0.8-0.6l3.4-4.4l1.1,0.9l-0.6,1.9l0.1,0
			l1.7-1.1l1,0.8l-3.4,4.4l-0.8-0.6L263,20.2z"/>
		<path class="st15" d="M265.6,25.5l0.6-1.3l-1.2-1l-1.1,0.8l-0.9-0.8l4.7-3.4L269,21l-2.4,5.3L265.6,25.5z M267.6,21.4L267.6,21.4
			l-1.8,1.3l0.9,0.7L267.6,21.4z"/>
		<path class="st15" d="M270.6,29.8l-1-0.9l0.3-1.2l0.3-0.9l-0.1,0l-0.9,0.4l-1.2,0.4l-0.9-0.8l3.1-1.1l0.7-3l1,0.9l-0.2,1l-0.3,0.9
			l0,0l0.9-0.4l0.9-0.4l0.9,0.8l-2.9,1.1L270.6,29.8z"/>
		<path class="st15" d="M271.5,30.6l0.6-0.6l0.9,0.8l2.6-2.8l-0.9-0.8l0.6-0.6l2.6,2.5l-0.6,0.6l-0.9-0.8l-2.6,2.8l0.9,0.8l-0.6,0.6
			L271.5,30.6z"/>
		<path class="st15" d="M279.1,34.5l1.1-1.1l0-0.1l-2.8,1.3l1.3-2.8l-0.1-0.1l-1.1,1.2l-1.8,1.8l-0.7-0.7l3.9-4l1,1l-0.8,1.8l0,0
			l1.8-0.8L282,33l-3.9,4l-0.7-0.7L279.1,34.5z"/>
		<path class="st15" d="M283.8,35l-2.6,2.4c-0.5,0.5-0.8,0.8-0.3,1.4c0.5,0.5,0.9,0.2,1.4-0.3l2.6-2.4l0.8,0.9l-2.4,2.3
			c-1.1,1.1-1.9,1.3-3,0.2c-1.1-1.2-0.8-2,0.3-3l2.4-2.3L283.8,35z"/>
		<path class="st15" d="M286.4,42.4l1.2-1l0-0.1l-2.8,1.1l1.5-2.7l0-0.1l-1.1,1.1l-1.9,1.6l-0.7-0.8l4.2-3.7l0.9,1.1l-1,1.8l0,0
			l1.9-0.7l0.9,1l-4.2,3.7l-0.7-0.8L286.4,42.4z"/>
		<path class="st15" d="M290.2,50.8l3.5-4.6l0.8,1.1l-1.8,2.3l-1.1,1.2l0,0.1l1.5-0.7l2.6-1.2l0.8,1l-5.3,2.3L290.2,50.8z"/>
		<path class="st15" d="M294.5,56.5l0.9-1.1l-0.9-1.2l-1.3,0.5l-0.7-1l5.4-2.1l1,1.4l-3.6,4.5L294.5,56.5z M297.5,53.1L297.5,53.1
			l-2.1,0.8l0.7,0.9L297.5,53.1z"/>
		<path class="st15" d="M296,58.6l4.6-3.1l0.7,1l-3.8,2.6l1.3,2l-0.8,0.6L296,58.6z"/>
		<path class="st15" d="M304.2,60.8l-3,1.9c-0.6,0.4-1,0.7-0.6,1.3c0.4,0.6,0.8,0.4,1.4,0l3-1.9l0.6,1l-2.9,1.8
			c-1.3,0.8-2.1,0.9-3-0.4c-0.9-1.4-0.4-2.1,0.9-2.9l2.9-1.8L304.2,60.8z"/>
		<path class="st15" d="M301.7,67.5l4.8-2.8l1.8,3.1l-0.8,0.5l-1.2-2l-1.1,0.7l1.2,2l-0.8,0.5l-1.2-2l-1.2,0.7l1.2,2l-0.8,0.5
			L301.7,67.5z"/>
		<path class="st15" d="M306.9,76.8l5-2.5l1.7,3.3l-0.9,0.4l-1.1-2.2l-1.1,0.6l1,2l-0.9,0.4l-1-2l-2.1,1L306.9,76.8z"/>
		<path class="st15" d="M311.6,80c1.7-0.8,2.9-0.6,3.5,0.8c0.6,1.4,0,2.4-1.7,3.2c-1.7,0.8-2.9,0.6-3.5-0.8
			C309.3,81.8,310,80.7,311.6,80z M312.5,83l0.9-0.4c0.8-0.4,1.2-0.8,0.9-1.4c-0.3-0.6-0.9-0.6-1.7-0.2l-0.9,0.4
			c-0.8,0.4-1.2,0.8-0.9,1.4C311.1,83.4,311.7,83.4,312.5,83z"/>
		<path class="st15" d="M311.9,87.4l-0.5-1.1l5.1-2.2l0.8,2c0.4,1,0,1.8-1,2.3c-0.7,0.3-1.4,0.2-1.8-0.3L313,90l-0.5-1.2l1.5-1.7
			l-0.2-0.5L311.9,87.4z M315,86.9c0.2,0.5,0.5,0.6,0.9,0.4l0.2-0.1c0.4-0.2,0.6-0.4,0.3-1l-0.3-0.6l-1.5,0.6L315,86.9z"/>
		<path class="st15" d="M315.4,96.2l5.3-1.8l1.2,3.4l-0.9,0.3l-0.8-2.2l-1.2,0.4l0.8,2.2l-0.9,0.3l-0.8-2.2l-1.3,0.4l0.8,2.2
			l-0.9,0.3L315.4,96.2z"/>
		<path class="st15" d="M318,104l1.2-0.7l-0.5-1.5l-1.4,0.1l-0.4-1.2l5.8-0.2l0.5,1.6l-4.9,3.1L318,104z M321.9,101.6L321.9,101.6
			l-2.2,0.1l0.3,1.1L321.9,101.6z"/>
		<path class="st15" d="M321.3,105.3c1.8-0.5,3-0.1,3.4,1.3c0.3,1.1-0.1,1.9-1,2.3l-0.6-1c0.5-0.3,0.8-0.6,0.6-1.1
			c-0.2-0.6-0.8-0.7-1.6-0.5l-0.9,0.3c-0.9,0.2-1.3,0.6-1.1,1.2c0.2,0.5,0.6,0.6,1.1,0.6l0,1.2c-1,0-1.8-0.4-2.1-1.5
			C318.7,106.7,319.6,105.8,321.3,105.3z"/>
		<path class="st15" d="M323,113.3l-0.3-1.4l-2.3,0.6l-0.3-1.2l5.4-1.3l0.3,1.2l-2.2,0.5l0.3,1.4l2.2-0.5l0.3,1.2L321,115l-0.3-1.2
			L323,113.3z"/>
		<path class="st15" d="M325.4,124.2l1.5-0.2l0-0.1l-3-0.5l2.7-1.5l0-0.1l-1.5,0.3l-2.5,0.4l-0.2-1l5.5-1l0.2,1.4l-1.7,1l0,0.1
			l2,0.4l0.2,1.3l-5.5,1l-0.2-1L325.4,124.2z"/>
		<path class="st15" d="M323.3,127.1l5.5-0.8l0.5,3.5l-1,0.1l-0.3-2.3l-1.3,0.2l0.3,2.3l-1,0.1l-0.3-2.3l-1.3,0.2l0.3,2.3l-1,0.1
			L323.3,127.1z"/>
		<path class="st15" d="M324.4,135.2l1.3-0.5l-0.2-1.5l-1.4-0.2l-0.1-1.2l5.7,0.9l0.2,1.7l-5.4,2.1L324.4,135.2z M328.6,133.6
			L328.6,133.6l-2.2-0.4l0.1,1.1L328.6,133.6z"/>
		<path class="st15" d="M325.3,137.2l0.8,0.6c-0.4,0.4-0.6,1-0.5,1.5c0,0.6,0.3,0.9,0.8,0.8c0.4,0,0.6-0.3,0.6-0.8l0-0.6
			c0.1-1,0.7-1.5,1.5-1.5c1.1-0.1,1.7,0.6,1.8,1.9c0.1,0.9-0.2,1.5-0.6,2l-0.8-0.6c0.3-0.3,0.5-0.8,0.4-1.3c0-0.5-0.3-0.8-0.7-0.8
			c-0.4,0-0.5,0.3-0.6,0.8l-0.1,0.6c-0.1,0.9-0.6,1.5-1.5,1.5c-1,0.1-1.9-0.6-2-2C324.6,138.4,324.8,137.6,325.3,137.2z"/>
		<path class="st15" d="M330.6,143.7l-3.5,0.2c-0.7,0-1.2,0.1-1.1,0.8c0,0.7,0.5,0.7,1.2,0.7l3.5-0.2l0.1,1.2l-3.4,0.2
			c-1.5,0.1-2.3-0.2-2.4-1.9s0.7-2,2.2-2.1l3.4-0.2L330.6,143.7z"/>
		<path class="st15" d="M325.2,149.4l0-1.2l5.6-0.1l0,2.2c0,1.1-0.7,1.7-1.8,1.7c-0.8,0-1.4-0.3-1.6-1l-2.2,1.1l0-1.3l2.1-1l0-0.6
			L325.2,149.4z M328.2,150.1c0,0.6,0.2,0.7,0.7,0.7l0.2,0c0.5,0,0.7-0.2,0.7-0.8l0-0.7l-1.6,0L328.2,150.1z"/>
		<path class="st15" d="M325.2,153.6l5.6,0.1l-0.1,3.6l-1,0l0-2.4l-1.3,0l0,2.3l-1,0l0-2.3l-1.4,0l0,2.4l-1,0L325.2,153.6z"/>
		<path class="st15" d="M324.6,167l1.4-0.2l0.1-1.5l-1.3-0.5l0.1-1.2l5.4,2l-0.1,1.7l-5.7,1L324.6,167z M329.1,166.3L329.1,166.3
			l-2.1-0.8l-0.1,1.1L329.1,166.3z"/>
		<path class="st15" d="M327.2,169.5c1.8,0.2,2.8,1,2.6,2.5c-0.1,1.1-0.8,1.7-1.8,1.8l-0.1-1.1c0.5-0.1,0.9-0.2,1-0.8
			c0.1-0.6-0.4-1-1.3-1.1l-1-0.1c-0.9-0.1-1.5,0.1-1.5,0.7c-0.1,0.6,0.3,0.8,0.8,1l-0.4,1.1c-0.9-0.3-1.5-1-1.4-2.1
			C324.2,169.9,325.3,169.3,327.2,169.5z"/>
		<path class="st15" d="M323.6,175.9l0.2-1.2l5.5,0.8l-0.3,2.1c-0.2,1.1-0.9,1.6-2,1.4c-0.8-0.1-1.3-0.6-1.4-1.2l-2.4,0.8l0.2-1.3
			l2.2-0.6l0.1-0.5L323.6,175.9z M326.4,177c-0.1,0.6,0.1,0.8,0.6,0.8l0.2,0c0.5,0.1,0.7-0.1,0.8-0.6l0.1-0.7l-1.6-0.2L326.4,177z"
			/>
		<path class="st15" d="M325.7,180.1c1.8,0.3,2.7,1.2,2.4,2.7c-0.3,1.5-1.4,2-3.2,1.6c-1.8-0.3-2.7-1.2-2.5-2.7
			C322.8,180.2,323.9,179.8,325.7,180.1z M324.7,183l1,0.2c0.9,0.2,1.4,0,1.6-0.6s-0.4-1-1.2-1.1l-1-0.2c-0.9-0.2-1.4,0-1.6,0.6
			S323.8,182.9,324.7,183z"/>
		<path class="st15" d="M322.8,185l0.6,0.8c-0.5,0.3-0.8,0.8-0.9,1.2c-0.1,0.6,0.1,0.9,0.5,1c0.4,0.1,0.6-0.1,0.8-0.6l0.2-0.6
			c0.4-0.9,1.1-1.2,1.9-1.1c1,0.2,1.5,1.1,1.2,2.3c-0.2,0.8-0.6,1.4-1.1,1.7l-0.6-0.8c0.4-0.2,0.7-0.6,0.8-1.1
			c0.1-0.5-0.1-0.8-0.5-0.9c-0.4-0.1-0.6,0.1-0.8,0.6l-0.2,0.5c-0.3,0.8-1,1.2-1.8,1.1c-1-0.2-1.6-1.1-1.3-2.5
			C321.7,185.9,322.2,185.3,322.8,185z"/>
		<path class="st15" d="M321.6,190.2l0.6,0.9c-0.5,0.3-0.9,0.7-1,1.2c-0.1,0.6,0,0.9,0.5,1c0.4,0.1,0.6-0.1,0.8-0.6l0.2-0.5
			c0.4-0.9,1.1-1.2,1.9-1c1,0.3,1.5,1.1,1.2,2.4c-0.2,0.8-0.6,1.4-1.2,1.7l-0.6-0.8c0.4-0.2,0.7-0.6,0.8-1.1c0.1-0.5,0-0.8-0.5-0.9
			c-0.4-0.1-0.6,0.1-0.8,0.6l-0.2,0.5c-0.4,0.8-1,1.2-1.9,1c-1-0.3-1.6-1.2-1.2-2.5C320.5,191.1,321,190.5,321.6,190.2z"/>
		<path class="st15" d="M317.2,203.4l1.4,0.1l0.5-1.5l-1.2-0.7l0.4-1.2l4.9,3.1l-0.5,1.6l-5.8-0.3L317.2,203.4z M321.7,203.7
			L321.7,203.7l-1.8-1.2l-0.3,1.1L321.7,203.7z"/>
		<path class="st15" d="M316.3,205.8l5.3,1.9l-0.4,1.1l-4.3-1.5l-0.8,2.3l-0.9-0.3L316.3,205.8z"/>
		<path class="st15" d="M314.5,210.8l5.2,2l-0.4,1.1l-4.3-1.7l-0.9,2.2l-0.9-0.4L314.5,210.8z"/>
		<path class="st15" d="M311.4,220.5l0.4,1c-0.6,0.2-1,0.5-1.2,1c-0.2,0.5-0.1,0.9,0.3,1.1c0.4,0.2,0.6,0.1,0.9-0.4l0.3-0.5
			c0.6-0.8,1.3-1,2.1-0.6c1,0.5,1.2,1.4,0.7,2.5c-0.4,0.8-0.9,1.2-1.5,1.4l-0.4-0.9c0.4-0.1,0.8-0.4,1-0.9c0.2-0.5,0.1-0.8-0.3-1
			c-0.3-0.2-0.6,0-0.9,0.4l-0.3,0.5c-0.5,0.7-1.2,1-2,0.6c-0.9-0.4-1.3-1.4-0.7-2.7C310.1,221.2,310.7,220.7,311.4,220.5z"/>
		<path class="st15" d="M311.2,229.5l-4.1-2.1l0.5-1.1l4.1,2.1l0.7-1.4l0.9,0.4l-2,3.9l-0.9-0.4L311.2,229.5z"/>
		<path class="st15" d="M310.2,233.6l-3.1-1.7c-0.6-0.3-1.1-0.5-1.4,0.1c-0.3,0.6,0,0.9,0.7,1.2l3.1,1.7l-0.6,1.1l-3-1.6
			c-1.3-0.7-1.9-1.4-1.1-2.8c0.8-1.4,1.6-1.3,3-0.6l3,1.6L310.2,233.6z"/>
		<path class="st15" d="M308.1,237.4l-0.9,1.5c-0.8,1.3-2,1.4-3.5,0.5s-2-2-1.3-3.3l0.9-1.5L308.1,237.4z M303.2,236.6
			c-0.4,0.6-0.1,1.1,0.6,1.6l0.9,0.5c0.7,0.4,1.3,0.4,1.7-0.2l0.3-0.5l-3.2-1.9L303.2,236.6z"/>
		<path class="st15" d="M300.5,239.2l0.7,0.5l-0.6,1l3.2,2.1l0.6-1l0.7,0.5l-1.9,3l-0.7-0.5l0.6-1l-3.2-2.1l-0.6,1l-0.7-0.5
			L300.5,239.2z"/>
		<path class="st15" d="M297.6,243.7l4.6,3.2l-2,2.9l-0.8-0.6l1.3-2l-1.1-0.7l-1.3,1.9l-0.8-0.6l1.3-1.9l-1.1-0.8l-1.3,2l-0.8-0.6
			L297.6,243.7z"/>
		<path class="st15" d="M295.4,248.3l0.2,1c-0.6,0.1-1.1,0.3-1.4,0.7c-0.3,0.5-0.3,0.9,0.1,1.1c0.3,0.2,0.6,0.2,1-0.2l0.4-0.4
			c0.7-0.7,1.5-0.7,2.1-0.2c0.9,0.6,0.9,1.6,0.2,2.6c-0.5,0.7-1.1,1-1.7,1.1l-0.2-1c0.4,0,0.8-0.3,1.1-0.7c0.3-0.4,0.3-0.8-0.1-1
			c-0.3-0.2-0.6-0.1-1,0.2l-0.4,0.4c-0.7,0.6-1.4,0.7-2.1,0.2c-0.8-0.6-1-1.7-0.2-2.8C294,248.7,294.7,248.3,295.4,248.3z"/>
	</g>
	<g>
		<path class="st15" d="M234.9,98.7l-0.8-1.1l-1.9,1.4l-0.7-1l4.5-3.4l0.7,1l-1.8,1.4l0.8,1.1l1.8-1.4l0.7,1l-4.5,3.4l-0.7-1
			L234.9,98.7z"/>
		<path class="st15" d="M236.2,104.7l0.9-1l-0.8-1.3l-1.3,0.5l-0.7-1l5.5-1.8l0.9,1.4l-3.8,4.3L236.2,104.7z M239.3,101.4
			L239.3,101.4l-2.1,0.7l0.6,1L239.3,101.4z"/>
		<path class="st15" d="M237.6,106.8l4.8-2.8l0.6,1l-4,2.3l1.2,2.1l-0.9,0.5L237.6,106.8z"/>
		<path class="st15" d="M240.1,111.4l5-2.5l1.7,3.3l-0.9,0.4l-1.1-2.2l-1.1,0.6l1,2l-0.9,0.4l-1-2l-2.1,1.1L240.1,111.4z"/>
		<path class="st15" d="M247,119.6c1.7-0.6,3-0.3,3.5,1.1c0.5,1.4-0.3,2.4-2,3c-1.7,0.6-3,0.3-3.5-1.1
			C244.5,121.2,245.3,120.2,247,119.6z M247.6,122.7l0.9-0.3c0.8-0.3,1.3-0.7,1-1.3c-0.2-0.6-0.8-0.7-1.7-0.4L247,121
			c-0.8,0.3-1.3,0.7-1,1.3S246.8,123,247.6,122.7z"/>
		<path class="st15" d="M246.3,125.9l5.3-1.6l1.1,3.5l-0.9,0.3l-0.7-2.4l-1.2,0.4l0.6,2.1l-0.9,0.3l-0.6-2.1l-2.2,0.7L246.3,125.9z"
			/>
		<path class="st15" d="M251.8,138.5l1.5-0.2l0-0.1l-3-0.5l2.7-1.5l0-0.1l-1.5,0.3l-2.5,0.4l-0.2-1l5.5-1l0.2,1.4l-1.7,1l0,0.1
			l2,0.4l0.2,1.3l-5.5,1l-0.2-1L251.8,138.5z"/>
		<path class="st15" d="M250.1,144.2l1.3-0.5l-0.2-1.5l-1.4-0.2l-0.1-1.2l5.7,0.9l0.2,1.7l-5.4,2.1L250.1,144.2z M254.3,142.6
			L254.3,142.6l-2.2-0.4l0.1,1.1L254.3,142.6z"/>
		<path class="st15" d="M250.5,150.7l-0.1-1.4l1.1-0.6l0.9-0.4l0-0.1l-0.9-0.4l-1.1-0.5l-0.1-1.3l3,1.4l2.6-1.6l0.1,1.4l-0.9,0.5
			l-0.9,0.5l0,0.1l0.9,0.4l0.9,0.4l0.1,1.3l-2.8-1.3L250.5,150.7z"/>
		<path class="st15" d="M251.1,152.8l0.3,0c0.4,0,0.7,0.2,0.7,0.8c0,0.6-0.3,0.8-0.7,0.8l-0.3,0c-0.4,0-0.7-0.2-0.7-0.8
			S250.7,152.8,251.1,152.8z"/>
		<path class="st15" d="M250,163.3l5.7-0.8l-0.2,1.3l-2.9,0.3l-1.6,0.1l0,0.1l1.6,0.5l2.7,1l-0.2,1.3l-5.4-2.1L250,163.3z"/>
		<path class="st15" d="M248.9,170.5l1.4-0.1l0.3-1.5l-1.3-0.6l0.2-1.2l5.2,2.5l-0.3,1.7l-5.8,0.5L248.9,170.5z M253.4,170.2
			L253.4,170.2l-2-1l-0.2,1.1L253.4,170.2z"/>
		<path class="st15" d="M248.4,172.9l5.4,1.3l-0.3,1.2l-4.5-1.1l-0.6,2.3l-1-0.2L248.4,172.9z"/>
		<path class="st15" d="M252.1,180.6l-3.4-1c-0.7-0.2-1.1-0.3-1.3,0.4c-0.2,0.7,0.2,0.9,0.9,1.1l3.4,1l-0.4,1.1l-3.2-1
			c-1.5-0.4-2.1-1-1.6-2.5c0.5-1.6,1.3-1.6,2.8-1.2l3.2,1L252.1,180.6z"/>
		<path class="st15" d="M245.5,183l5.2,1.9l-1.2,3.3l-0.9-0.3l0.8-2.2l-1.2-0.4l-0.8,2.1l-0.9-0.3l0.8-2.1l-1.3-0.5l-0.8,2.2
			l-0.9-0.3L245.5,183z"/>
	</g>
</g>
</svg>
